<svg xmlns="http://www.w3.org/2000/svg" viewBox="0 0 100 100" width="100" height="100">
  <defs>
    <linearGradient id="grad" x1="0%" y1="0%" x2="100%" y2="100%">
      <stop offset="0%" style="stop-color:#1a73e8;stop-opacity:1" />
      <stop offset="100%" style="stop-color:#00bcd4;stop-opacity:1" />
    </linearGradient>
  </defs>
  <!-- Brain/Neural network representation -->
  <circle cx="50" cy="50" r="45" fill="none" stroke="url(#grad)" stroke-width="3"/>
  <!-- Central node -->
  <circle cx="50" cy="50" r="8" fill="url(#grad)"/>
  <!-- Outer nodes -->
  <circle cx="50" cy="20" r="5" fill="#1a73e8"/>
  <circle cx="50" cy="80" r="5" fill="#1a73e8"/>
  <circle cx="20" cy="50" r="5" fill="#1a73e8"/>
  <circle cx="80" cy="50" r="5" fill="#1a73e8"/>
  <circle cx="28" cy="28" r="4" fill="#00bcd4"/>
  <circle cx="72" cy="28" r="4" fill="#00bcd4"/>
  <circle cx="28" cy="72" r="4" fill="#00bcd4"/>
  <circle cx="72" cy="72" r="4" fill="#00bcd4"/>
  <!-- Connections -->
  <line x1="50" y1="42" x2="50" y2="25" stroke="#1a73e8" stroke-width="2"/>
  <line x1="50" y1="58" x2="50" y2="75" stroke="#1a73e8" stroke-width="2"/>
  <line x1="42" y1="50" x2="25" y2="50" stroke="#1a73e8" stroke-width="2"/>
  <line x1="58" y1="50" x2="75" y2="50" stroke="#1a73e8" stroke-width="2"/>
  <line x1="44" y1="44" x2="32" y2="32" stroke="#00bcd4" stroke-width="1.5"/>
  <line x1="56" y1="44" x2="68" y2="32" stroke="#00bcd4" stroke-width="1.5"/>
  <line x1="44" y1="56" x2="32" y2="68" stroke="#00bcd4" stroke-width="1.5"/>
  <line x1="56" y1="56" x2="68" y2="68" stroke="#00bcd4" stroke-width="1.5"/>
</svg>
